<svg width="1045" height="476" viewBox="0 0 1045 476" fill="none" xmlns="http://www.w3.org/2000/svg">
<rect width="1046" height="483" transform="translate(-1 -7)" fill="url(#paint0_linear_2319_1397)" fill-opacity="0.5"/>
<g clip-path="url(#clip0_2319_1397)">
<path d="M995.936 445.889H993.383V452.272H999.766V449.719H995.936V445.889ZM993.383 440.782H995.936V436.952H999.766V434.398H993.383V440.782ZM1008.7 449.719H1004.87V452.272H1011.26V445.889H1008.7V449.719ZM1004.87 434.398V436.952H1008.7V440.782H1011.26V434.398H1004.87Z" fill="white"/>
</g>
<g clip-path="url(#clip1_2319_1397)">
<g clip-path="url(#clip2_2319_1397)">
<path d="M77.0859 438.725V446.896H82.5332L89.3423 453.705V431.916L82.5332 438.725H77.0859ZM95.4706 442.81C95.4706 440.4 94.0815 438.33 92.066 437.322V448.285C94.0815 447.291 95.4706 445.221 95.4706 442.81ZM92.066 430.867V433.673C96.0017 434.844 98.8751 438.493 98.8751 442.81C98.8751 447.127 96.0017 450.777 92.066 451.948V454.754C97.5269 453.514 101.599 448.639 101.599 442.81C101.599 436.982 97.5269 432.106 92.066 430.867Z" fill="white"/>
</g>
</g>
<g clip-path="url(#clip3_2319_1397)">
<path d="M41.2109 434.383V452.257L55.2547 443.32L41.2109 434.383Z" fill="white"/>
</g>
<g clip-path="url(#clip4_2319_1397)">
<path d="M959.08 440.949L955.116 437.998V449.596L959.08 446.645L962.915 443.797L959.08 440.949ZM959.08 440.949L955.116 437.998V449.596L959.08 446.645L962.915 443.797L959.08 440.949ZM959.08 440.949L955.116 437.998V449.596L959.08 446.645L962.915 443.797L959.08 440.949ZM956.416 433.578V430.975C953.803 431.232 951.424 432.263 949.5 433.823L951.346 435.665C952.789 434.557 954.518 433.81 956.416 433.578ZM949.513 437.482L947.654 435.652C946.081 437.56 945.041 439.918 944.781 442.508H947.407C947.641 440.627 948.395 438.913 949.513 437.482ZM947.407 445.086H944.781C945.041 447.676 946.081 450.034 947.654 451.941L949.513 450.098C948.395 448.681 947.641 446.967 947.407 445.086ZM949.5 453.771C951.424 455.33 953.816 456.361 956.416 456.619V454.016C954.518 453.784 952.789 453.037 951.346 451.928L949.5 453.771ZM970.715 443.797C970.715 450.446 965.619 455.936 959.08 456.619V454.016C964.176 453.346 968.115 449.016 968.115 443.797C968.115 438.578 964.176 434.248 959.08 433.578V430.975C965.619 431.658 970.715 437.147 970.715 443.797Z" fill="white"/>
</g>
<g clip-path="url(#clip5_2319_1397)">
<rect x="131" y="442.258" width="782.195" height="5.44704" rx="2.72352" fill="#DBDBDB"/>
<rect x="131" y="442.258" width="273.442" height="5.44704" rx="2.72352" fill="white"/>
</g>
<circle cx="400.82" cy="444.258" r="6.17969" fill="white"/>
<g clip-path="url(#clip6_2319_1397)">
<g clip-path="url(#clip7_2319_1397)">
<path d="M499 165.297C509.741 165.297 520.043 169.564 527.638 177.159C535.233 184.754 539.5 195.056 539.5 205.797C539.5 216.538 535.233 226.839 527.638 234.435C520.043 242.03 509.741 246.297 499 246.297C488.259 246.297 477.957 242.03 470.362 234.435C462.767 226.839 458.5 216.538 458.5 205.797C458.5 195.056 462.767 184.754 470.362 177.159C477.957 169.564 488.259 165.297 499 165.297ZM466.094 205.797C466.094 214.524 469.561 222.894 475.732 229.065C481.903 235.236 490.273 238.703 499 238.703C507.727 238.703 516.097 235.236 522.268 229.065C528.439 222.894 531.906 214.524 531.906 205.797C531.906 197.07 528.439 188.7 522.268 182.529C516.097 176.358 507.727 172.891 499 172.891C490.273 172.891 481.903 176.358 475.732 182.529C469.561 188.7 466.094 197.07 466.094 205.797ZM490.794 191.759L512.38 204.713C512.567 204.826 512.721 204.985 512.828 205.175C512.935 205.365 512.992 205.579 512.992 205.797C512.992 206.015 512.935 206.229 512.828 206.419C512.721 206.609 512.567 206.768 512.38 206.88L490.794 219.835C490.602 219.951 490.383 220.013 490.158 220.017C489.934 220.02 489.713 219.963 489.518 219.853C489.323 219.743 489.161 219.583 489.048 219.389C488.935 219.196 488.875 218.976 488.875 218.752V192.847C488.874 192.622 488.933 192.402 489.046 192.208C489.159 192.013 489.321 191.853 489.516 191.742C489.711 191.631 489.933 191.574 490.157 191.577C490.382 191.58 490.601 191.643 490.794 191.759Z" fill="#83848D"/>
</g>
</g>
<path d="M373.608 281.368L376.104 274.184H378.04L374.68 283H372.504L369.16 274.184H371.112L373.608 281.368ZM380.347 273.016C380.016 273.016 379.739 272.904 379.515 272.68C379.291 272.456 379.179 272.179 379.179 271.848C379.179 271.517 379.291 271.24 379.515 271.016C379.739 270.792 380.016 270.68 380.347 270.68C380.667 270.68 380.939 270.792 381.163 271.016C381.387 271.24 381.499 271.517 381.499 271.848C381.499 272.179 381.387 272.456 381.163 272.68C380.939 272.904 380.667 273.016 380.347 273.016ZM381.243 274.184V283H379.419V274.184H381.243ZM383.03 278.552C383.03 277.667 383.211 276.883 383.574 276.2C383.947 275.517 384.448 274.989 385.078 274.616C385.718 274.232 386.427 274.04 387.206 274.04C387.782 274.04 388.347 274.168 388.902 274.424C389.467 274.669 389.915 275 390.246 275.416V271.16H392.086V283H390.246V281.672C389.947 282.099 389.531 282.451 388.998 282.728C388.475 283.005 387.872 283.144 387.19 283.144C386.422 283.144 385.718 282.952 385.078 282.568C384.448 282.173 383.947 281.629 383.574 280.936C383.211 280.232 383.03 279.437 383.03 278.552ZM390.246 278.584C390.246 277.976 390.118 277.448 389.862 277C389.616 276.552 389.291 276.211 388.886 275.976C388.48 275.741 388.043 275.624 387.574 275.624C387.104 275.624 386.667 275.741 386.262 275.976C385.856 276.2 385.526 276.536 385.27 276.984C385.024 277.421 384.902 277.944 384.902 278.552C384.902 279.16 385.024 279.693 385.27 280.152C385.526 280.611 385.856 280.963 386.262 281.208C386.678 281.443 387.115 281.56 387.574 281.56C388.043 281.56 388.48 281.443 388.886 281.208C389.291 280.973 389.616 280.632 389.862 280.184C390.118 279.725 390.246 279.192 390.246 278.584ZM402.561 278.376C402.561 278.707 402.54 279.005 402.497 279.272H395.761C395.815 279.976 396.076 280.541 396.545 280.968C397.015 281.395 397.591 281.608 398.273 281.608C399.255 281.608 399.948 281.197 400.353 280.376H402.321C402.055 281.187 401.569 281.853 400.865 282.376C400.172 282.888 399.308 283.144 398.273 283.144C397.431 283.144 396.673 282.957 396.001 282.584C395.34 282.2 394.817 281.667 394.433 280.984C394.06 280.291 393.873 279.491 393.873 278.584C393.873 277.677 394.055 276.883 394.417 276.2C394.791 275.507 395.308 274.973 395.969 274.6C396.641 274.227 397.409 274.04 398.273 274.04C399.105 274.04 399.847 274.221 400.497 274.584C401.148 274.947 401.655 275.459 402.017 276.12C402.38 276.771 402.561 277.523 402.561 278.376ZM400.657 277.8C400.647 277.128 400.407 276.589 399.937 276.184C399.468 275.779 398.887 275.576 398.193 275.576C397.564 275.576 397.025 275.779 396.577 276.184C396.129 276.579 395.863 277.117 395.777 277.8H400.657ZM408.18 283.144C407.348 283.144 406.596 282.957 405.924 282.584C405.252 282.2 404.724 281.667 404.34 280.984C403.956 280.291 403.764 279.491 403.764 278.584C403.764 277.688 403.962 276.893 404.356 276.2C404.751 275.507 405.29 274.973 405.972 274.6C406.655 274.227 407.418 274.04 408.26 274.04C409.103 274.04 409.866 274.227 410.548 274.6C411.231 274.973 411.77 275.507 412.164 276.2C412.559 276.893 412.756 277.688 412.756 278.584C412.756 279.48 412.554 280.275 412.148 280.968C411.743 281.661 411.188 282.2 410.484 282.584C409.791 282.957 409.023 283.144 408.18 283.144ZM408.18 281.56C408.65 281.56 409.087 281.448 409.492 281.224C409.908 281 410.244 280.664 410.5 280.216C410.756 279.768 410.884 279.224 410.884 278.584C410.884 277.944 410.762 277.405 410.516 276.968C410.271 276.52 409.946 276.184 409.54 275.96C409.135 275.736 408.698 275.624 408.228 275.624C407.759 275.624 407.322 275.736 406.916 275.96C406.522 276.184 406.207 276.52 405.972 276.968C405.738 277.405 405.62 277.944 405.62 278.584C405.62 279.533 405.86 280.269 406.34 280.792C406.831 281.304 407.444 281.56 408.18 281.56ZM420.54 271.16V283H418.716V271.16H420.54ZM431.014 278.376C431.014 278.707 430.993 279.005 430.95 279.272H424.214C424.268 279.976 424.529 280.541 424.998 280.968C425.468 281.395 426.044 281.608 426.726 281.608C427.708 281.608 428.401 281.197 428.806 280.376H430.774C430.508 281.187 430.022 281.853 429.318 282.376C428.625 282.888 427.761 283.144 426.726 283.144C425.884 283.144 425.126 282.957 424.454 282.584C423.793 282.2 423.27 281.667 422.886 280.984C422.513 280.291 422.326 279.491 422.326 278.584C422.326 277.677 422.508 276.883 422.87 276.2C423.244 275.507 423.761 274.973 424.422 274.6C425.094 274.227 425.862 274.04 426.726 274.04C427.558 274.04 428.3 274.221 428.95 274.584C429.601 274.947 430.108 275.459 430.47 276.12C430.833 276.771 431.014 277.523 431.014 278.376ZM429.11 277.8C429.1 277.128 428.86 276.589 428.39 276.184C427.921 275.779 427.34 275.576 426.646 275.576C426.017 275.576 425.478 275.779 425.03 276.184C424.582 276.579 424.316 277.117 424.23 277.8H429.11ZM432.201 278.584C432.201 277.677 432.383 276.883 432.745 276.2C433.119 275.507 433.631 274.973 434.281 274.6C434.932 274.227 435.679 274.04 436.521 274.04C437.588 274.04 438.468 274.296 439.161 274.808C439.865 275.309 440.34 276.029 440.585 276.968H438.617C438.457 276.531 438.201 276.189 437.849 275.944C437.497 275.699 437.055 275.576 436.521 275.576C435.775 275.576 435.177 275.843 434.729 276.376C434.292 276.899 434.073 277.635 434.073 278.584C434.073 279.533 434.292 280.275 434.729 280.808C435.177 281.341 435.775 281.608 436.521 281.608C437.577 281.608 438.276 281.144 438.617 280.216H440.585C440.329 281.112 439.849 281.827 439.145 282.36C438.441 282.883 437.567 283.144 436.521 283.144C435.679 283.144 434.932 282.957 434.281 282.584C433.631 282.2 433.119 281.667 432.745 280.984C432.383 280.291 432.201 279.491 432.201 278.584ZM444.531 275.672V280.552C444.531 280.883 444.606 281.123 444.755 281.272C444.915 281.411 445.182 281.48 445.555 281.48H446.675V283H445.235C444.414 283 443.784 282.808 443.347 282.424C442.91 282.04 442.691 281.416 442.691 280.552V275.672H441.651V274.184H442.691V271.992H444.531V274.184H446.675V275.672H444.531ZM456.34 274.184V283H454.516V281.96C454.228 282.323 453.85 282.611 453.38 282.824C452.922 283.027 452.431 283.128 451.908 283.128C451.215 283.128 450.591 282.984 450.036 282.696C449.492 282.408 449.06 281.981 448.74 281.416C448.431 280.851 448.276 280.168 448.276 279.368V274.184H450.084V279.096C450.084 279.885 450.282 280.493 450.676 280.92C451.071 281.336 451.61 281.544 452.292 281.544C452.975 281.544 453.514 281.336 453.908 280.92C454.314 280.493 454.516 279.885 454.516 279.096V274.184H456.34ZM460.571 275.464C460.838 275.016 461.19 274.669 461.627 274.424C462.075 274.168 462.603 274.04 463.211 274.04V275.928H462.747C462.032 275.928 461.488 276.109 461.115 276.472C460.752 276.835 460.571 277.464 460.571 278.36V283H458.747V274.184H460.571V275.464ZM472.968 278.376C472.968 278.707 472.946 279.005 472.904 279.272H466.168C466.221 279.976 466.482 280.541 466.952 280.968C467.421 281.395 467.997 281.608 468.68 281.608C469.661 281.608 470.354 281.197 470.76 280.376H472.727C472.461 281.187 471.976 281.853 471.272 282.376C470.578 282.888 469.714 283.144 468.68 283.144C467.837 283.144 467.08 282.957 466.408 282.584C465.746 282.2 465.224 281.667 464.84 280.984C464.466 280.291 464.28 279.491 464.28 278.584C464.28 277.677 464.461 276.883 464.824 276.2C465.197 275.507 465.714 274.973 466.376 274.6C467.048 274.227 467.816 274.04 468.68 274.04C469.512 274.04 470.253 274.221 470.904 274.584C471.554 274.947 472.061 275.459 472.424 276.12C472.786 276.771 472.968 277.523 472.968 278.376ZM471.064 277.8C471.053 277.128 470.813 276.589 470.344 276.184C469.874 275.779 469.293 275.576 468.6 275.576C467.97 275.576 467.432 275.779 466.984 276.184C466.536 276.579 466.269 277.117 466.184 277.8H471.064ZM490.759 274.184L488.023 283H486.103L484.327 276.488L482.551 283H480.631L477.879 274.184H479.735L481.575 281.272L483.447 274.184H485.351L487.143 281.24L488.967 274.184H490.759ZM493.05 273.016C492.719 273.016 492.442 272.904 492.218 272.68C491.994 272.456 491.882 272.179 491.882 271.848C491.882 271.517 491.994 271.24 492.218 271.016C492.442 270.792 492.719 270.68 493.05 270.68C493.37 270.68 493.642 270.792 493.866 271.016C494.09 271.24 494.202 271.517 494.202 271.848C494.202 272.179 494.09 272.456 493.866 272.68C493.642 272.904 493.37 273.016 493.05 273.016ZM493.946 274.184V283H492.122V274.184H493.946ZM498.165 271.16V283H496.341V271.16H498.165ZM502.383 271.16V283H500.559V271.16H502.383ZM510.758 275.496C511.068 275.069 511.489 274.723 512.022 274.456C512.566 274.179 513.169 274.04 513.83 274.04C514.609 274.04 515.313 274.227 515.942 274.6C516.572 274.973 517.068 275.507 517.43 276.2C517.793 276.883 517.974 277.667 517.974 278.552C517.974 279.437 517.793 280.232 517.43 280.936C517.068 281.629 516.566 282.173 515.926 282.568C515.297 282.952 514.598 283.144 513.83 283.144C513.148 283.144 512.54 283.011 512.006 282.744C511.484 282.477 511.068 282.136 510.758 281.72V283H508.934V271.16H510.758V275.496ZM516.118 278.552C516.118 277.944 515.99 277.421 515.734 276.984C515.489 276.536 515.158 276.2 514.742 275.976C514.337 275.741 513.9 275.624 513.43 275.624C512.972 275.624 512.534 275.741 512.118 275.976C511.713 276.211 511.382 276.552 511.126 277C510.881 277.448 510.758 277.976 510.758 278.584C510.758 279.192 510.881 279.725 511.126 280.184C511.382 280.632 511.713 280.973 512.118 281.208C512.534 281.443 512.972 281.56 513.43 281.56C513.9 281.56 514.337 281.443 514.742 281.208C515.158 280.963 515.489 280.611 515.734 280.152C515.99 279.693 516.118 279.16 516.118 278.552ZM527.858 278.376C527.858 278.707 527.837 279.005 527.794 279.272H521.058C521.111 279.976 521.373 280.541 521.842 280.968C522.311 281.395 522.887 281.608 523.57 281.608C524.551 281.608 525.245 281.197 525.65 280.376H527.618C527.351 281.187 526.866 281.853 526.162 282.376C525.469 282.888 524.605 283.144 523.57 283.144C522.727 283.144 521.97 282.957 521.298 282.584C520.637 282.2 520.114 281.667 519.73 280.984C519.357 280.291 519.17 279.491 519.17 278.584C519.17 277.677 519.351 276.883 519.714 276.2C520.087 275.507 520.605 274.973 521.266 274.6C521.938 274.227 522.706 274.04 523.57 274.04C524.402 274.04 525.143 274.221 525.794 274.584C526.445 274.947 526.951 275.459 527.314 276.12C527.677 276.771 527.858 277.523 527.858 278.376ZM525.954 277.8C525.943 277.128 525.703 276.589 525.234 276.184C524.765 275.779 524.183 275.576 523.49 275.576C522.861 275.576 522.322 275.779 521.874 276.184C521.426 276.579 521.159 277.117 521.074 277.8H525.954ZM535.633 275.48C535.943 275.075 536.364 274.733 536.897 274.456C537.431 274.179 538.033 274.04 538.705 274.04C539.473 274.04 540.172 274.232 540.801 274.616C541.441 274.989 541.943 275.517 542.305 276.2C542.668 276.883 542.849 277.667 542.849 278.552C542.849 279.437 542.668 280.232 542.305 280.936C541.943 281.629 541.441 282.173 540.801 282.568C540.172 282.952 539.473 283.144 538.705 283.144C538.033 283.144 537.436 283.011 536.913 282.744C536.391 282.467 535.964 282.125 535.633 281.72V287.192H533.809V274.184H535.633V275.48ZM540.993 278.552C540.993 277.944 540.865 277.421 540.609 276.984C540.364 276.536 540.033 276.2 539.617 275.976C539.212 275.741 538.775 275.624 538.305 275.624C537.847 275.624 537.409 275.741 536.993 275.976C536.588 276.211 536.257 276.552 536.001 277C535.756 277.448 535.633 277.976 535.633 278.584C535.633 279.192 535.756 279.725 536.001 280.184C536.257 280.632 536.588 280.973 536.993 281.208C537.409 281.443 537.847 281.56 538.305 281.56C538.775 281.56 539.212 281.443 539.617 281.208C540.033 280.963 540.364 280.611 540.609 280.152C540.865 279.693 540.993 279.16 540.993 278.552ZM546.477 271.16V283H544.653V271.16H546.477ZM548.264 278.552C548.264 277.667 548.445 276.883 548.808 276.2C549.181 275.517 549.683 274.989 550.312 274.616C550.952 274.232 551.656 274.04 552.424 274.04C553.117 274.04 553.72 274.179 554.232 274.456C554.755 274.723 555.171 275.059 555.48 275.464V274.184H557.32V283H555.48V281.688C555.171 282.104 554.749 282.451 554.216 282.728C553.683 283.005 553.075 283.144 552.392 283.144C551.635 283.144 550.941 282.952 550.312 282.568C549.683 282.173 549.181 281.629 548.808 280.936C548.445 280.232 548.264 279.437 548.264 278.552ZM555.48 278.584C555.48 277.976 555.352 277.448 555.096 277C554.851 276.552 554.525 276.211 554.12 275.976C553.715 275.741 553.277 275.624 552.808 275.624C552.339 275.624 551.901 275.741 551.496 275.976C551.091 276.2 550.76 276.536 550.504 276.984C550.259 277.421 550.136 277.944 550.136 278.552C550.136 279.16 550.259 279.693 550.504 280.152C550.76 280.611 551.091 280.963 551.496 281.208C551.912 281.443 552.349 281.56 552.808 281.56C553.277 281.56 553.715 281.443 554.12 281.208C554.525 280.973 554.851 280.632 555.096 280.184C555.352 279.725 555.48 279.192 555.48 278.584ZM567.652 274.184L562.244 287.144H560.356L562.148 282.856L558.676 274.184H560.708L563.188 280.904L565.764 274.184H567.652ZM577.108 278.376C577.108 278.707 577.087 279.005 577.044 279.272H570.308C570.361 279.976 570.623 280.541 571.092 280.968C571.561 281.395 572.137 281.608 572.82 281.608C573.801 281.608 574.495 281.197 574.9 280.376H576.868C576.601 281.187 576.116 281.853 575.412 282.376C574.719 282.888 573.855 283.144 572.82 283.144C571.977 283.144 571.22 282.957 570.548 282.584C569.887 282.2 569.364 281.667 568.98 280.984C568.607 280.291 568.42 279.491 568.42 278.584C568.42 277.677 568.601 276.883 568.964 276.2C569.337 275.507 569.855 274.973 570.516 274.6C571.188 274.227 571.956 274.04 572.82 274.04C573.652 274.04 574.393 274.221 575.044 274.584C575.695 274.947 576.201 275.459 576.564 276.12C576.927 276.771 577.108 277.523 577.108 278.376ZM575.204 277.8C575.193 277.128 574.953 276.589 574.484 276.184C574.015 275.779 573.433 275.576 572.74 275.576C572.111 275.576 571.572 275.779 571.124 276.184C570.676 276.579 570.409 277.117 570.324 277.8H575.204ZM578.295 278.552C578.295 277.667 578.476 276.883 578.839 276.2C579.212 275.517 579.714 274.989 580.343 274.616C580.983 274.232 581.692 274.04 582.471 274.04C583.047 274.04 583.612 274.168 584.167 274.424C584.732 274.669 585.18 275 585.511 275.416V271.16H587.351V283H585.511V281.672C585.212 282.099 584.796 282.451 584.263 282.728C583.74 283.005 583.138 283.144 582.455 283.144C581.687 283.144 580.983 282.952 580.343 282.568C579.714 282.173 579.212 281.629 578.839 280.936C578.476 280.232 578.295 279.437 578.295 278.552ZM585.511 278.584C585.511 277.976 585.383 277.448 585.127 277C584.882 276.552 584.556 276.211 584.151 275.976C583.746 275.741 583.308 275.624 582.839 275.624C582.37 275.624 581.932 275.741 581.527 275.976C581.122 276.2 580.791 276.536 580.535 276.984C580.29 277.421 580.167 277.944 580.167 278.552C580.167 279.16 580.29 279.693 580.535 280.152C580.791 280.611 581.122 280.963 581.527 281.208C581.943 281.443 582.38 281.56 582.839 281.56C583.308 281.56 583.746 281.443 584.151 281.208C584.556 280.973 584.882 280.632 585.127 280.184C585.383 279.725 585.511 279.192 585.511 278.584ZM598.463 274.04C599.135 274.04 599.732 274.184 600.255 274.472C600.788 274.76 601.204 275.187 601.503 275.752C601.812 276.317 601.967 277 601.967 277.8V283H600.159V278.072C600.159 277.283 599.962 276.68 599.567 276.264C599.172 275.837 598.634 275.624 597.951 275.624C597.268 275.624 596.724 275.837 596.319 276.264C595.924 276.68 595.727 277.283 595.727 278.072V283H593.903V271.16H595.727V275.208C596.036 274.835 596.426 274.547 596.895 274.344C597.375 274.141 597.898 274.04 598.463 274.04ZM612.374 278.376C612.374 278.707 612.352 279.005 612.31 279.272H605.574C605.627 279.976 605.888 280.541 606.358 280.968C606.827 281.395 607.403 281.608 608.086 281.608C609.067 281.608 609.76 281.197 610.166 280.376H612.134C611.867 281.187 611.382 281.853 610.678 282.376C609.984 282.888 609.12 283.144 608.086 283.144C607.243 283.144 606.486 282.957 605.814 282.584C605.152 282.2 604.63 281.667 604.246 280.984C603.872 280.291 603.686 279.491 603.686 278.584C603.686 277.677 603.867 276.883 604.23 276.2C604.603 275.507 605.12 274.973 605.782 274.6C606.454 274.227 607.222 274.04 608.086 274.04C608.918 274.04 609.659 274.221 610.31 274.584C610.96 274.947 611.467 275.459 611.83 276.12C612.192 276.771 612.374 277.523 612.374 278.376ZM610.47 277.8C610.459 277.128 610.219 276.589 609.75 276.184C609.28 275.779 608.699 275.576 608.006 275.576C607.376 275.576 606.838 275.779 606.39 276.184C605.942 276.579 605.675 277.117 605.59 277.8H610.47ZM615.993 275.464C616.259 275.016 616.611 274.669 617.049 274.424C617.497 274.168 618.025 274.04 618.633 274.04V275.928H618.169C617.454 275.928 616.91 276.109 616.537 276.472C616.174 276.835 615.993 277.464 615.993 278.36V283H614.169V274.184H615.993V275.464ZM628.389 278.376C628.389 278.707 628.368 279.005 628.325 279.272H621.589C621.643 279.976 621.904 280.541 622.373 280.968C622.843 281.395 623.419 281.608 624.101 281.608C625.083 281.608 625.776 281.197 626.181 280.376H628.149C627.883 281.187 627.397 281.853 626.693 282.376C626 282.888 625.136 283.144 624.101 283.144C623.259 283.144 622.501 282.957 621.829 282.584C621.168 282.2 620.645 281.667 620.261 280.984C619.888 280.291 619.701 279.491 619.701 278.584C619.701 277.677 619.883 276.883 620.245 276.2C620.619 275.507 621.136 274.973 621.797 274.6C622.469 274.227 623.237 274.04 624.101 274.04C624.933 274.04 625.675 274.221 626.325 274.584C626.976 274.947 627.483 275.459 627.845 276.12C628.208 276.771 628.389 277.523 628.389 278.376ZM626.485 277.8C626.475 277.128 626.235 276.589 625.765 276.184C625.296 275.779 624.715 275.576 624.021 275.576C623.392 275.576 622.853 275.779 622.405 276.184C621.957 276.579 621.691 277.117 621.605 277.8H626.485Z" fill="black" fill-opacity="0.87"/>
<defs>
<linearGradient id="paint0_linear_2319_1397" x1="523" y1="569.804" x2="510.536" y2="8.60295" gradientUnits="userSpaceOnUse">
<stop offset="0.00656599" stop-opacity="0.5"/>
<stop offset="1" stop-opacity="0"/>
</linearGradient>
<clipPath id="clip0_2319_1397">
<rect width="30.641" height="30.641" fill="white" transform="translate(987 428.016)"/>
</clipPath>
<clipPath id="clip1_2319_1397">
<rect width="58.2179" height="44.9402" fill="white" transform="translate(73 428)"/>
</clipPath>
<clipPath id="clip2_2319_1397">
<rect width="32.6838" height="32.6838" fill="white" transform="translate(73 426.469)"/>
</clipPath>
<clipPath id="clip3_2319_1397">
<rect width="30.641" height="30.641" fill="white" transform="translate(31 428)"/>
</clipPath>
<clipPath id="clip4_2319_1397">
<rect width="42.8974" height="233.893" fill="white" transform="translate(936 236)"/>
</clipPath>
<clipPath id="clip5_2319_1397">
<rect x="131" y="442.258" width="782.195" height="5.44704" rx="2.72352" fill="white"/>
</clipPath>
<clipPath id="clip6_2319_1397">
<rect width="81" height="81" fill="white" transform="translate(458.5 165)"/>
</clipPath>
<clipPath id="clip7_2319_1397">
<rect width="81" height="81" fill="white" transform="translate(458.5 165.297)"/>
</clipPath>
</defs>
</svg>
